<?xml version="1.0" standalone="no"?>
<!DOCTYPE svg PUBLIC "-//W3C//DTD SVG 20010904//EN"
 "http://www.w3.org/TR/2001/REC-SVG-20010904/DTD/svg10.dtd">
<svg version="1.0" xmlns="http://www.w3.org/2000/svg"
 width="1200.000000pt" height="1200.000000pt" viewBox="0 0 1200.000000 1200.000000"
 preserveAspectRatio="xMidYMid meet">
<metadata>
Created by potrace 1.14, written by Peter Selinger 2001-2017
</metadata>
<g transform="translate(0.000000,1200.000000) scale(0.100000,-0.100000)"
fill="#000000" stroke="none">
<path d="M1047 10522 c-9 -2 -17 -11 -18 -20 -1 -22 -1 -8950 0 -8979 l1 -23
4650 0 4650 0 0 4510 0 4510 -22 1 c-101 2 -9248 3 -9261 1z m9003 -4507 l0
-4225 -22 -4 c-13 -3 -1979 -4 -4370 -4 l-4348 1 0 4229 0 4228 4370 0 4370 0
0 -4225z"/>
<path d="M5858 8625 c-2 -1 -91 -6 -198 -9 -107 -4 -211 -9 -230 -11 -19 -1
-78 -6 -130 -10 -52 -4 -115 -9 -140 -11 -66 -6 -465 -6 -535 1 -33 2 -91 8
-130 11 -38 3 -83 8 -100 10 -16 2 -118 7 -226 11 -195 6 -197 6 -208 -16 -31
-57 -12 -158 33 -179 12 -6 56 -16 100 -22 160 -24 286 -82 372 -172 53 -55
144 -180 144 -198 0 -5 4 -10 9 -10 5 0 11 -8 14 -17 3 -10 20 -43 38 -73 35
-61 168 -324 235 -467 87 -185 133 -280 189 -398 32 -66 77 -160 100 -210 23
-49 71 -148 105 -220 34 -71 80 -166 100 -210 21 -44 70 -147 110 -230 40 -82
83 -175 97 -204 l25 -55 -35 -70 c-45 -88 -137 -263 -249 -471 -47 -88 -120
-227 -163 -310 -43 -82 -81 -154 -85 -160 -4 -5 -37 -68 -74 -138 -37 -71 -75
-143 -85 -160 -9 -18 -55 -103 -101 -190 -46 -87 -87 -154 -91 -150 -4 4 -25
49 -47 98 -73 166 -83 190 -97 220 -11 23 -293 662 -394 890 -10 22 -26 58
-35 80 -10 22 -131 294 -268 605 -138 311 -261 590 -275 620 -14 30 -40 89
-58 130 -18 41 -111 253 -207 470 -219 495 -222 503 -222 606 0 72 4 90 32
147 67 136 233 229 446 252 36 4 70 13 76 20 16 19 22 102 10 146 -8 29 -17
40 -37 45 -23 6 -412 -2 -528 -11 -143 -11 -229 -17 -310 -21 -97 -4 -501 -4
-575 0 -66 5 -225 17 -273 22 -23 2 -139 7 -258 10 l-217 7 -16 -24 c-15 -23
-21 -59 -17 -104 0 -11 11 -32 24 -48 22 -27 29 -30 177 -53 181 -28 361 -114
475 -228 146 -145 220 -280 498 -921 74 -170 142 -326 151 -345 8 -19 70 -161
137 -315 67 -154 129 -298 139 -320 10 -22 47 -107 83 -190 36 -82 129 -296
207 -475 78 -179 147 -338 155 -355 7 -16 24 -56 39 -88 14 -32 26 -60 26 -62
0 -2 11 -28 24 -57 24 -52 168 -383 550 -1263 206 -473 213 -485 289 -485 54
0 96 26 123 76 18 34 266 485 332 604 13 25 40 74 60 110 19 36 54 99 77 140
23 41 58 104 77 140 61 112 90 164 108 195 9 17 34 62 55 100 21 39 50 93 65
120 277 504 369 672 400 730 21 38 42 71 47 72 4 2 15 -12 22 -29 8 -18 53
-112 99 -208 46 -96 101 -211 122 -255 21 -44 70 -147 110 -230 40 -82 91
-190 115 -240 90 -190 145 -305 215 -450 40 -82 94 -195 120 -250 26 -55 76
-158 110 -230 34 -71 86 -179 115 -240 65 -136 79 -150 155 -150 32 0 64 6 73
13 8 7 108 223 222 480 114 257 217 490 230 517 12 28 48 109 80 180 55 125
72 165 114 258 10 23 83 186 161 362 78 176 148 334 155 350 8 17 35 77 60
135 26 58 55 123 65 145 10 22 43 96 73 165 30 69 64 145 75 170 12 25 57 126
100 226 44 99 89 200 100 225 12 24 138 309 282 633 329 743 380 844 493 981
128 154 298 247 497 270 77 10 88 14 111 47 28 38 33 124 9 153 -14 16 -29 17
-190 11 -96 -3 -186 -8 -200 -11 -14 -3 -61 -8 -105 -11 -44 -3 -96 -8 -115
-10 -47 -5 -362 -5 -425 1 -144 12 -203 17 -235 21 -19 2 -118 6 -220 10 -211
8 -206 9 -219 -73 -8 -52 1 -104 21 -121 7 -5 42 -12 78 -16 214 -19 344 -87
409 -214 32 -64 45 -177 29 -261 -5 -25 -11 -58 -13 -73 -3 -15 -9 -37 -14
-50 -5 -13 -9 -26 -10 -30 -1 -4 -4 -16 -7 -25 -7 -23 -111 -273 -140 -338
-29 -63 -304 -703 -314 -730 -4 -11 -17 -41 -28 -65 -11 -25 -42 -94 -67 -155
-26 -60 -53 -123 -61 -140 -7 -16 -40 -95 -74 -175 -34 -80 -68 -158 -75 -175
-7 -16 -43 -100 -80 -185 -36 -85 -75 -173 -85 -195 -10 -22 -30 -69 -45 -105
-15 -36 -35 -83 -45 -105 -10 -22 -99 -231 -200 -465 -100 -234 -192 -447
-204 -475 -13 -27 -26 -60 -30 -72 -4 -13 -11 -23 -14 -23 -4 0 -67 120 -139
268 -72 147 -209 425 -303 617 -95 193 -224 456 -287 585 -63 129 -144 293
-179 363 -35 71 -64 133 -64 139 0 9 118 232 253 478 64 116 75 137 117 215
96 178 115 214 170 315 32 58 74 137 95 175 164 306 321 546 432 660 133 138
285 208 518 240 79 11 91 16 108 44 19 33 23 121 6 153 -11 20 -16 21 -193 14
-99 -4 -197 -9 -216 -11 -19 -2 -73 -6 -120 -10 -47 -4 -103 -9 -125 -11 -51
-5 -381 -5 -416 0 -14 2 -70 7 -125 10 -54 4 -112 9 -129 11 -64 8 -364 17
-387 12 -38 -10 -62 -64 -56 -125 6 -66 20 -82 72 -82 113 0 273 -50 352 -110
133 -100 153 -269 60 -501 -20 -51 -256 -504 -296 -569 -5 -8 -22 -40 -38 -70
-16 -30 -62 -116 -102 -190 -40 -74 -90 -169 -113 -210 -22 -41 -41 -76 -42
-78 -1 -1 -41 75 -88 170 -540 1094 -523 1059 -555 1174 -41 147 1 245 132
309 64 31 181 61 271 69 90 9 103 13 110 37 12 37 7 130 -9 153 -13 20 -49 39
-58 31z"/>
</g>
</svg>
